<svg width="16" height="16" viewBox="0 0 16 16" fill="none" xmlns="http://www.w3.org/2000/svg">
<path fill-rule="evenodd" clip-rule="evenodd" d="M1.99313 3.249C2.20402 2.89915 3.36663 1.62917 4.1951 1.66751C4.44296 1.68873 4.66206 1.83798 4.84008 2.01187H4.84077C5.24884 2.4117 6.41967 3.92062 6.4854 4.23829C6.64767 5.01739 5.71854 5.46651 6.00269 6.25178C6.72709 8.02428 7.97529 9.27236 9.74864 9.99602C10.5333 10.2808 10.9825 9.35246 11.7616 9.51404C12.0793 9.58045 13.5891 10.7505 13.9882 11.1592V11.1592C14.1615 11.3365 14.3121 11.5563 14.3326 11.8041C14.3635 12.677 13.0146 13.8553 12.7517 14.0059C12.1314 14.4502 11.3221 14.442 10.3354 13.9833C7.58227 12.8379 3.18244 8.52132 2.01573 5.66437C1.56931 4.6833 1.53918 3.86859 1.99313 3.249Z" stroke="white" stroke-linecap="round" stroke-linejoin="round"/>
<path d="M9.70996 1.83331C12.178 2.10731 14.1266 4.05398 14.404 6.52131" stroke="white" stroke-linecap="round" stroke-linejoin="round"/>
<path d="M9.70996 4.19531C10.89 4.42531 11.812 5.34731 12.042 6.52731" stroke="white" stroke-linecap="round" stroke-linejoin="round"/>
</svg>
