<svg width="18" height="21" viewBox="0 0 18 21" fill="none" xmlns="http://www.w3.org/2000/svg">
<path fill-rule="evenodd" clip-rule="evenodd" d="M1.98926 9.39259V9.40425C2.05653 11.2862 2.70754 13.1007 3.85222 14.5963L3.85702 14.6026L3.85699 14.6026C5.19779 16.3931 6.8432 17.9338 8.71796 19.154C8.74649 19.1726 8.77373 19.1931 8.79948 19.2154C8.86725 19.274 8.96778 19.274 9.03556 19.2154C9.06202 19.1925 9.09005 19.1715 9.11944 19.1525C10.3771 18.3406 11.5366 17.3861 12.5752 16.3081C14.3982 14.3835 15.7962 12.0101 15.8458 9.52315V9.44347L15.8458 9.44092C15.8588 5.61454 12.7674 2.50212 8.94106 2.48912C5.1151 2.47612 2.00293 5.56679 1.98926 9.39259ZM0.489262 9.38875C0.505077 4.73395 4.29136 0.97331 8.94615 0.989124C13.6006 1.00494 17.361 4.7906 17.3458 9.44487V9.53042L17.3456 9.54462C17.2884 12.5672 15.6101 15.286 13.6619 17.342L13.6578 17.3463L13.6578 17.3463C12.549 18.4977 11.3121 19.5182 9.97111 20.388C9.3561 20.8834 8.47734 20.8831 7.86268 20.387C5.85689 19.0753 4.09569 17.4231 2.65867 15.5049C1.32332 13.7588 0.565175 11.64 0.4897 9.44313C0.489405 9.43455 0.489258 9.42597 0.489258 9.41738V9.39129V9.38875H0.489262ZM8.91752 7.82825C7.97263 7.82825 7.20665 8.59423 7.20665 9.53912C7.20665 10.484 7.97263 11.25 8.91752 11.25C9.86241 11.25 10.6284 10.484 10.6284 9.53912C10.6284 8.59423 9.86241 7.82825 8.91752 7.82825ZM5.70665 9.53912C5.70665 7.76581 7.1442 6.32825 8.91752 6.32825C10.6908 6.32825 12.1284 7.76581 12.1284 9.53912C12.1284 11.3124 10.6908 12.75 8.91752 12.75C7.1442 12.75 5.70665 11.3124 5.70665 9.53912Z" fill="#CFCFCF"/>
</svg>
