<svg width="21" height="21" viewBox="0 0 21 21" fill="none" xmlns="http://www.w3.org/2000/svg">
<path fill-rule="evenodd" clip-rule="evenodd" d="M1.52785 9.76658C1.52785 5.21655 5.21638 1.52802 9.76641 1.52802C14.3164 1.52802 18.005 5.21655 18.005 9.76658C18.005 14.3166 14.3164 18.0051 9.76641 18.0051C5.21638 18.0051 1.52785 14.3166 1.52785 9.76658ZM9.76641 0.0280151C4.38795 0.0280151 0.027849 4.38812 0.027849 9.76658C0.027849 15.145 4.38795 19.5051 9.76641 19.5051C12.0668 19.5051 14.1808 18.7076 15.8472 17.3739L19.0125 20.531C19.3058 20.8235 19.7807 20.8229 20.0732 20.5296C20.3657 20.2364 20.3651 19.7615 20.0718 19.469L16.9437 16.349C18.5342 14.6156 19.505 12.3045 19.505 9.76658C19.505 4.38812 15.1449 0.0280151 9.76641 0.0280151Z" fill="white"/>
</svg>
