<svg width="19" height="19" viewBox="0 0 19 19" fill="none" xmlns="http://www.w3.org/2000/svg">
<path fill-rule="evenodd" clip-rule="evenodd" d="M4.7613 0.00891113H14.2236C16.8454 0.00891113 18.9849 2.14848 19 4.77021V14.2325C19 16.8543 16.8604 18.9938 14.2387 18.9938H4.7613C2.13957 18.9938 0 16.8543 0 14.2476V4.77021C0 2.14848 2.13957 0.00891113 4.7613 0.00891113ZM15.3688 13.1326V8.28092V5.87013C15.3688 4.60447 14.3894 3.62509 13.1237 3.62509H5.86122C4.59556 3.62509 3.61618 4.60447 3.61618 5.87013V8.28092V13.1326C3.61618 14.3983 4.59556 15.3777 5.86122 15.3777H13.1237C14.3894 15.3777 15.3688 14.3983 15.3688 13.1326ZM13.7713 4.94964H12.0234V6.9536H14.0123V5.20578V4.93457L13.7713 4.94964ZM9.49239 7.40576C10.1855 7.40576 10.8033 7.75231 11.1799 8.27967C11.421 8.62622 11.5717 9.04811 11.5717 9.50013C11.5717 10.6453 10.6375 11.5794 9.49239 11.5794C8.34727 11.5794 7.41309 10.6453 7.41309 9.50013C7.41309 9.04811 7.56376 8.62622 7.80484 8.27967C8.18152 7.75231 8.79929 7.40576 9.49239 7.40576ZM12.732 9.50007C12.732 9.07818 12.6416 8.59603 12.4909 8.29468H14.314V13.1313C14.314 13.7641 13.7565 14.3216 13.1237 14.3216H5.86122C5.22839 14.3216 4.6709 13.7641 4.6709 13.1313V8.29468H6.49405C6.34338 8.59603 6.25298 9.06312 6.25298 9.50007C6.25298 11.2931 7.69945 12.7396 9.49247 12.7396C11.2855 12.7396 12.732 11.278 12.732 9.50007Z" fill="white"/>
</svg>
