<svg width="20" height="19" viewBox="0 0 20 19" fill="none" xmlns="http://www.w3.org/2000/svg">
<path fill-rule="evenodd" clip-rule="evenodd" d="M3.93748 0H15.8125C17.7802 0 19.375 1.59482 19.375 3.56248V15.4375C19.375 17.4051 17.7802 19 15.8125 19H3.93748C1.96982 19 0.375 17.4052 0.375 15.4375V3.56248C0.375 1.59482 1.96982 0 3.93748 0ZM14.207 13.5731C15.0466 13.427 15.6474 12.4177 15.7116 11.6268C15.8445 9.96667 15.8445 8.9181 15.7116 7.25798C15.6474 6.46711 15.1736 5.47078 14.207 5.43517C11.5031 5.25347 8.29804 5.20359 5.54422 5.43517C4.68923 5.53015 4.10379 6.57161 4.03967 7.36129C3.9043 9.02141 3.9043 9.96667 4.03967 11.6268C4.10379 12.4165 4.67496 13.4638 5.54422 13.5731C8.33006 13.756 11.5173 13.7821 14.207 13.5731ZM12.25 9.5L8.6875 11.875V7.125L12.25 9.5Z" fill="white"/>
</svg>
